<svg width="100%" height="100%" viewBox="0 0 1200 1200" xmlns="http://www.w3.org/2000/svg" xmlns:xlink="http://www.w3.org/1999/xlink" xmlns:serif="http://www.serif.com/" style="fill-rule:evenodd;clip-rule:evenodd;stroke-linejoin:round;stroke-miterlimit:2"><g><rect x="0" y="0" width="1200" height="1200" fill="#9acd32"/></g><g transform="matrix(1,0,0,1,-141.358,-178.132)"><path d="M1132.4 753.985H367.598c-21.119.0-38.24 17.121-38.24 38.24.0 151.087 80.082 283.805 200.014 357.985C523.87 1156.84 520.559 1165.34 520.559 1174.63 520.559 1195.75 537.68 1212.87 558.799 1212.87H941.201C962.32 1212.87 979.441 1195.75 979.441 1174.63 979.441 1165.34 976.13 1156.84 970.628 1150.21 1090.56 1076.03 1170.64 943.312 1170.64 792.225c0-21.119-17.1200000000001-38.24-38.24-38.24zM608.49 564.874C610.099 562.559 611.684 560.804 613.221 558.722 614.115 557.592 614.48 556.974 615.772 555.407L619.336 551.008 622.907 546.598 626.027 542.618 634.462 531.531C645.168 516.053 654.277 498.553 660.253 479.656 666.282 460.811 668.847 440.59 667.573 421.453 666.378 402.287 661.468 384.437 654.564 369.338 647.711 354.153 638.772 341.729 629.802 331.597 611.566 311.394 592.638 300.456 578.963 294.384 565.223 288.305 556.472 287.132 556.472 287.132S559.74 295.298 564.436 308.336C569.064 321.368 575.056 339.548 578.698 359.344 580.606 369.278 581.584 379.369 581.619 389.485c0 10.018-1.08500000000004 19.704-3.298 28.966C573.918 436.868 565.185 454.617 551.939 473.665L546.704 480.753 539.665 490.447 536.369 495.053C535.332 496.458 533.761 499.073 532.505 501.034 529.949 505.246 527.024 509.509 524.923 513.672c-8.976 16.165-15.885 34.355-19.31 53.444C502.183 586.189 502.799 606.223 507.469 623.912 511.97 641.706 520.537 656.692 529.875 668.005 539.337 679.358 549.512 687.365 558.936 693.073 568.419 698.748 577.119 702.236 584.433 704.448 591.716 706.698 597.62 707.654 601.665 708.106 605.715 708.55 607.909 708.475 607.909 708.475S603.269 700.937 597.185 688.703C591.19 676.559 583.848 659.113 581.841 641.286 580.639 632.459 581.229 623.68 582.976 615.519 584.746 607.306 587.665 599.464 591.886 591.135 596.151 582.807 601.701 574.055 608.49 564.874zm164.338.0C774.436 562.559 776.022 560.804 777.559 558.722 778.452 557.592 778.817 556.974 780.11 555.407L783.674 551.008 787.244 546.598 790.364 542.618 798.799 531.531C809.505 516.053 818.615 498.553 824.59 479.656 830.619 460.811 833.185 440.59 831.911 421.453 830.716 402.287 825.806 384.437 818.902 369.338 812.048 354.153 803.11 341.729 794.139 331.597c-18.236-20.203-37.164-31.141-50.838-37.213C729.561 288.305 720.809 287.132 720.809 287.132S724.078 295.298 728.773 308.336C733.402 321.368 739.394 339.548 743.036 359.344 744.943 369.278 745.921 379.369 745.956 389.485c0 10.018-1.08500000000004 19.704-3.298 28.966C738.256 436.868 729.522 454.617 716.276 473.665L711.042 480.753 704.003 490.447 700.707 495.053C699.67 496.458 698.099 499.073 696.843 501.034 694.287 505.246 691.362 509.509 689.26 513.672 680.284 529.837 673.375 548.027 669.95 567.116 666.521 586.189 667.136 606.223 671.807 623.912 676.308 641.706 684.875 656.692 694.213 668.005 703.675 679.358 713.849 687.365 723.274 693.073 732.756 698.748 741.456 702.236 748.771 704.448 756.053 706.698 761.957 707.654 766.003 708.106 770.053 708.55 772.247 708.475 772.247 708.475S767.606 700.937 761.523 688.703C755.527 676.559 748.186 659.113 746.179 641.286 744.976 632.459 745.566 623.68 747.313 615.519 749.084 607.306 752.003 599.464 756.223 591.135 760.489 582.807 766.039 574.055 772.828 564.874zm164.338.0C938.773 562.559 940.36 560.804 941.896 558.722 942.79 557.592 943.155 556.974 944.447 555.407L948.011 551.008 951.582 546.598 954.702 542.618 963.136 531.531C973.842 516.053 982.952 498.553 988.928 479.656 994.957 460.811 997.522 440.59 996.248 421.453 995.053 402.287 990.143 384.437 983.239 369.338 976.386 354.153 967.447 341.729 958.477 331.597 940.241 311.394 921.313 300.456 907.638 294.384 893.898 288.305 885.147 287.132 885.147 287.132S888.415 295.298 893.111 308.336C897.74 321.368 903.732 339.548 907.373 359.344 909.281 369.278 910.259 379.369 910.294 389.485c0 10.018-1.08500000000004 19.704-3.298 28.966C902.593 436.868 893.86 454.617 880.614 473.665L875.38 480.753 868.34 490.447 865.044 495.053C864.008 496.458 862.437 499.073 861.18 501.034 858.624 505.246 855.699 509.509 853.597 513.672 844.622 529.837 837.713 548.027 834.288 567.116 830.858 586.189 831.474 606.223 836.144 623.912 840.645 641.706 849.212 656.692 858.551 668.005 868.012 679.358 878.187 687.365 887.612 693.073 897.093 698.748 905.794 702.236 913.108 704.448 920.391 706.698 926.295 707.654 930.34 708.106 934.39 708.55 936.584 708.475 936.584 708.475S931.943 700.937 925.86 688.703C919.865 676.559 912.523 659.113 910.517 641.286 909.313 632.459 909.903 623.68 911.651 615.519 913.421 607.306 916.341 599.464 920.561 591.135 924.826 582.807 930.377 574.055 937.166 564.874z" style="fill:#fff;fill-rule:nonzero"/></g></svg>